<svg width="310" height="54" viewBox="0 0 310 54" fill="none" xmlns="http://www.w3.org/2000/svg">
<path d="M82.1649 22.6596C80.6393 21.7453 78.8958 21.282 76.9815 21.282C75.4348 21.282 73.9889 21.5935 72.6878 22.2071C71.6957 22.6751 70.806 23.2764 70.0335 24.0031V15.1671C70.0335 14.5147 69.8172 13.9755 69.3878 13.5679C68.9584 13.1604 68.3941 12.9543 67.7093 12.9543C67.0506 12.9543 66.4944 13.1588 66.0537 13.5648C65.6096 13.9739 65.3852 14.5132 65.3852 15.1687V31.6847C65.4112 33.645 65.9008 35.4348 66.8425 37.0046C67.7842 38.5744 69.0837 39.8327 70.7052 40.7423C72.3284 41.6535 74.1841 42.1153 76.222 42.1153C78.2843 42.1153 80.153 41.6535 81.7762 40.7423C83.3977 39.8327 84.7038 38.5759 85.6568 37.0077C86.6115 35.4379 87.0962 33.645 87.0962 31.6816C87.0962 29.7228 86.6522 27.9408 85.7772 26.3849C84.9006 24.8245 83.6856 23.5723 82.1649 22.6596ZM79.4781 37.2851C78.5315 37.8383 77.4353 38.1188 76.222 38.1188C75.0315 38.1188 73.9418 37.8383 72.9822 37.2851C72.021 36.7318 71.2566 35.957 70.7101 34.9823C70.1604 34.0045 69.8822 32.8934 69.8822 31.68C69.8822 30.445 70.1604 29.3339 70.7085 28.3809C71.2549 27.4294 72.0193 26.667 72.9822 26.1106C73.9434 25.5574 75.0331 25.2769 76.222 25.2769C77.4353 25.2769 78.5315 25.5574 79.4781 26.1106C80.4295 26.667 81.1972 27.4325 81.7567 28.3855C82.3162 29.3401 82.6008 30.4496 82.6008 31.6816C82.6008 32.8918 82.3162 34.0029 81.7551 34.9823C81.1956 35.9555 80.4295 36.7303 79.4781 37.2851Z" fill="white"/>
<path d="M106.493 22.6162C104.87 21.7314 102.99 21.282 100.905 21.282C98.795 21.282 96.9019 21.7314 95.2787 22.6162C93.654 23.5026 92.3593 24.7423 91.4306 26.3012C90.502 27.8586 90.0319 29.6795 90.0319 31.7157C90.0319 33.7271 90.5036 35.5355 91.4306 37.0929C92.3593 38.6534 93.6556 39.8931 95.2787 40.7779C96.9003 41.6628 98.7934 42.1122 100.905 42.1122C103.016 42.1122 104.907 41.6628 106.53 40.7779C108.155 39.8915 109.443 38.6518 110.362 37.0898C111.278 35.5324 111.741 33.724 111.741 31.7141C111.741 29.681 111.271 27.8586 110.343 26.2997C109.412 24.7423 108.116 23.5026 106.493 22.6162ZM104.203 37.3021C103.255 37.8445 102.145 38.1188 100.905 38.1188C99.6636 38.1188 98.5543 37.8445 97.6061 37.3021C96.6563 36.7597 95.8984 36.002 95.3519 35.0505C94.8038 34.0959 94.5257 32.974 94.5257 31.7141C94.5257 30.4543 94.8038 29.3246 95.3536 28.3592C95.9 27.3968 96.6579 26.6344 97.6078 26.092C98.556 25.5497 99.6652 25.2754 100.906 25.2754C102.145 25.2754 103.256 25.5497 104.205 26.092C105.153 26.6344 105.904 27.3953 106.438 28.3576C106.976 29.3261 107.248 30.4558 107.248 31.7157C107.248 32.9755 106.976 34.099 106.438 35.0551C105.902 36.0035 105.151 36.7597 104.203 37.3021Z" fill="white"/>
<path d="M125.985 37.612H124.694C124 37.612 123.425 37.3362 122.941 36.769C122.437 36.1802 122.191 35.4611 122.191 34.5747V25.9991H125.036C125.665 25.9991 126.187 25.8209 126.589 25.4675C126.999 25.1065 127.207 24.6493 127.207 24.1116C127.207 23.5243 126.999 23.0439 126.589 22.6828C126.187 22.3295 125.665 22.1513 125.036 22.1513H122.191V17.3041C122.191 16.6749 121.975 16.1496 121.545 15.7405C121.116 15.3329 120.565 15.1268 119.904 15.1268C119.244 15.1268 118.691 15.3329 118.263 15.742C117.835 16.1496 117.619 16.6765 117.619 17.3056V22.1529H116.256C115.627 22.1529 115.103 22.3311 114.703 22.6844C114.293 23.0455 114.085 23.5258 114.085 24.1132C114.085 24.6524 114.293 25.1096 114.703 25.4691C115.103 25.8224 115.627 26.0006 116.256 26.0006H117.619V34.5763C117.619 35.9586 117.928 37.2215 118.536 38.3311C119.148 39.4452 119.999 40.3394 121.066 40.9871C122.137 41.638 123.357 41.968 124.692 41.968H125.377C126.127 41.968 126.755 41.7681 127.241 41.3745C127.747 40.9654 128.004 40.4324 128.004 39.7908C128.004 39.1694 127.81 38.6487 127.431 38.2427C127.041 37.8228 126.555 37.612 125.985 37.612Z" fill="white"/>
<path d="M142.248 30.4093L148.954 24.7067C149.407 24.3038 149.653 23.8311 149.684 23.2996C149.715 22.7634 149.513 22.2707 149.097 21.8445C148.698 21.406 148.204 21.1689 147.63 21.1394C147.054 21.11 146.53 21.3021 146.08 21.7035L137.487 29.01V15.0958C137.487 14.4667 137.278 13.946 136.861 13.5509C136.447 13.1557 135.9 12.9543 135.24 12.9543C134.579 12.9543 134.033 13.1557 133.618 13.5509C133.203 13.946 132.992 14.4667 132.992 15.0958V39.8249C132.992 40.4541 133.202 40.9747 133.618 41.3699C134.033 41.7651 134.579 41.9665 135.24 41.9665C135.9 41.9665 136.447 41.7651 136.861 41.3699C137.276 40.9747 137.487 40.4541 137.487 39.8249V34.457L138.948 33.2142L145.924 41.4319C146.321 41.8983 146.826 42.1556 147.428 42.2005C147.49 42.2051 147.55 42.2067 147.61 42.2067C148.134 42.2067 148.617 42.0378 149.053 41.7015C149.565 41.3002 149.848 40.8182 149.895 40.2712C149.941 39.7304 149.765 39.2221 149.373 38.7603L142.248 30.4093Z" fill="white"/>
<path d="M172.138 21.3905C171.48 21.3905 170.923 21.595 170.483 22.001C170.039 22.4101 169.814 22.9494 169.814 23.6049V33.8154C169.814 34.6042 169.582 35.3263 169.123 35.9601C168.654 36.6063 168.019 37.127 167.233 37.5067C166.443 37.8879 165.524 38.0831 164.501 38.0831C163.424 38.0831 162.446 37.8817 161.591 37.4865C160.753 37.0991 160.082 36.4917 159.59 35.6781C159.094 34.8583 158.844 33.7922 158.844 32.5122V23.6049C158.844 22.9757 158.621 22.4442 158.18 22.0227C157.74 21.6028 157.18 21.3905 156.521 21.3905C155.861 21.3905 155.302 21.6028 154.862 22.0227C154.422 22.4427 154.199 22.9742 154.199 23.6034V32.5106C154.199 34.567 154.619 36.3336 155.445 37.7577C156.276 39.1911 157.427 40.2929 158.867 41.0352C160.298 41.7728 161.939 42.1478 163.744 42.1478C165.501 42.1478 167.092 41.779 168.472 41.0522C168.964 40.7934 169.425 40.4944 169.853 40.1612C169.931 40.6152 170.141 41.0104 170.484 41.3343C170.923 41.7542 171.483 41.9665 172.145 41.9665C172.833 41.9665 173.399 41.7527 173.828 41.3296C174.253 40.9112 174.469 40.3797 174.469 39.7521V23.6049C174.469 22.9525 174.253 22.4132 173.823 22.0057C173.387 21.5966 172.823 21.3905 172.138 21.3905Z" fill="white"/>
<path d="M196.305 22.6596C194.78 21.7453 193.036 21.282 191.122 21.282C189.575 21.282 188.129 21.5935 186.828 22.2071C185.836 22.6751 184.946 23.2764 184.174 24.0031V15.1671C184.174 14.5147 183.957 13.9755 183.528 13.5679C183.099 13.1604 182.534 12.9543 181.85 12.9543C181.191 12.9543 180.635 13.1588 180.194 13.5648C179.75 13.9739 179.525 14.5132 179.525 15.1687V31.6847C179.551 33.645 180.041 35.4348 180.983 37.0046C181.924 38.5744 183.224 39.8327 184.845 40.7423C186.469 41.6535 188.324 42.1153 190.362 42.1153C192.425 42.1153 194.293 41.6535 195.916 40.7423C197.538 39.8327 198.844 38.5759 199.797 37.0077C200.752 35.4379 201.236 33.645 201.236 31.6816C201.236 29.7228 200.792 27.9408 199.917 26.3849C199.039 24.8245 197.824 23.5723 196.305 22.6596ZM193.618 37.2851C192.672 37.8383 191.576 38.1188 190.362 38.1188C189.172 38.1188 188.082 37.8383 187.122 37.2851C186.161 36.7318 185.397 35.957 184.85 34.9823C184.301 34.0045 184.022 32.8934 184.022 31.68C184.022 30.445 184.301 29.3339 184.849 28.3809C185.395 27.4294 186.16 26.667 187.122 26.1106C188.084 25.5574 189.173 25.2769 190.362 25.2769C191.576 25.2769 192.672 25.5574 193.618 26.1106C194.57 26.667 195.337 27.4325 195.897 28.3855C196.456 29.3401 196.741 30.4496 196.741 31.6816C196.741 32.8918 196.456 34.0029 195.895 34.9823C195.334 35.9555 194.568 36.7303 193.618 37.2851Z" fill="white"/>
<path d="M223.839 26.1773C223.063 24.6602 221.921 23.4515 220.444 22.5852C218.971 21.7205 217.188 21.282 215.15 21.282C213.09 21.282 211.234 21.7314 209.637 22.6178C208.038 23.5042 206.768 24.7454 205.864 26.3059C204.963 27.8633 204.504 29.6826 204.504 31.7157C204.504 33.7286 204.989 35.5386 205.943 37.096C206.9 38.6565 208.24 39.8962 209.928 40.781C211.611 41.6643 213.56 42.1122 215.72 42.1122C216.923 42.1122 218.198 41.8983 219.509 41.4768C220.825 41.0553 221.946 40.499 222.832 39.828C223.499 39.3414 223.613 38.7805 223.592 38.393C223.561 37.8584 223.286 37.3718 222.772 36.9379C222.37 36.6141 221.892 36.4576 221.352 36.4715C220.831 36.4854 220.342 36.6497 219.896 36.9612C219.421 37.3006 218.785 37.6058 218.003 37.8677C217.226 38.1296 216.456 38.2629 215.718 38.2629C214.347 38.2629 213.121 37.9746 212.07 37.4059C211.021 36.8388 210.187 36.0562 209.591 35.0784C209.269 34.55 209.032 33.9704 208.882 33.349H222.863C223.471 33.349 223.982 33.1615 224.384 32.7942C224.79 32.4223 224.995 31.9497 224.995 31.3887C225 29.4362 224.61 27.682 223.839 26.1773ZM211.649 25.9805C212.608 25.4164 213.787 25.1297 215.152 25.1297C216.336 25.1297 217.351 25.3901 218.171 25.9014C218.994 26.4175 219.639 27.1288 220.087 28.0167C220.348 28.5358 220.54 29.1061 220.661 29.7166H208.936C209.061 29.2161 209.237 28.7435 209.456 28.3065C209.954 27.3271 210.691 26.5445 211.649 25.9805Z" fill="white"/>
<path d="M3.91968 15.1857L25.3412 26.7677L25.3445 49.3676L46.3512 38.1932V15.398L24.9769 3.84085L3.91968 15.1857Z" fill="#AACAF9"/>
<path d="M29.7732 24.544V33.6341L33.7742 31.4321V22.3435L29.7732 24.544Z" fill="#2D78D3"/>
<path d="M31.7932 37.0975L40.2798 32.5308L40.2408 36.9333L31.7542 41.5L31.7932 37.0975Z" fill="#2D78D3"/>
<path d="M38.0614 20.0004V29.1526L42.0624 26.9505V17.7984L38.0614 20.0004Z" fill="#2D78D3"/>
<path d="M50.3327 13.1574L27.3157 0.602238C25.8503 -0.197373 24.0514 -0.200473 22.5828 0.591391L2.42661 11.4636C0.927057 12.2725 0 13.7881 0 15.4291V37.7454C0 39.3896 0.928683 40.9051 2.43149 41.714L22.9455 52.7521C24.4092 53.5393 26.1999 53.5378 27.6621 52.7459L47.9337 41.7667C49.43 40.9563 50.3538 39.4438 50.3538 37.8043V13.1465L50.3327 13.1574ZM46.3512 38.1933L25.3428 49.3677L25.3412 26.7678L3.91966 15.1858L24.9769 3.84097L46.3528 15.3981V38.1933H46.3512Z" fill="#2D78D3"/>
<path d="M283.339 21C281.901 21 280.579 21.2067 279.378 21.6272L279.376 21.6281C278.185 22.0517 277.219 22.6777 276.498 23.5145C275.761 24.3707 275.402 25.407 275.402 26.5955C275.402 28.2315 276.101 29.6119 277.469 30.709C278.83 31.8016 280.67 32.4312 282.942 32.6368C284.581 32.7982 285.65 33.2099 286.259 33.793L286.264 33.797C286.929 34.418 287.237 35.0915 287.237 35.8319C287.237 36.4271 287.051 36.9039 286.694 37.2915C286.314 37.6888 285.802 38.0051 285.139 38.2314L285.136 38.2327C284.487 38.4597 283.766 38.5764 282.965 38.5764C282.253 38.5764 281.578 38.4759 280.938 38.2767C280.289 38.0747 279.745 37.8148 279.297 37.5022C278.867 37.1889 278.578 36.8621 278.406 36.5269C278.202 36.1272 277.89 35.8189 277.473 35.6205C277.076 35.4062 276.644 35.3336 276.199 35.4247C275.651 35.528 275.198 35.7794 274.915 36.2107L274.91 36.219L274.905 36.2275C274.64 36.6738 274.654 37.1551 274.886 37.6167C275.275 38.4675 275.885 39.2117 276.7 39.8496C277.516 40.487 278.468 40.9784 279.551 41.3272C280.636 41.6768 281.775 41.8506 282.965 41.8506C283.968 41.8506 284.937 41.7292 285.871 41.4851C286.828 41.2396 287.683 40.8687 288.428 40.3688L288.43 40.3676C289.198 39.8478 289.807 39.208 290.252 38.4499C290.727 37.6714 290.956 36.7683 290.956 35.7572C290.956 33.9975 290.312 32.547 289.006 31.4533C287.731 30.354 285.974 29.7226 283.789 29.5167C282.428 29.3863 281.428 29.1616 280.757 28.8636C280.085 28.5572 279.674 28.2229 279.456 27.8845C279.23 27.4865 279.121 27.0835 279.121 26.6702C279.121 26.2478 279.216 25.9056 279.387 25.627C279.558 25.3491 279.821 25.1089 280.198 24.9117L280.204 24.9083C280.996 24.4796 282.002 24.2584 283.252 24.2742L283.259 24.2742C283.959 24.2742 284.544 24.3678 285.024 24.5415L285.031 24.5439L285.037 24.5461C285.534 24.7106 285.958 24.9395 286.316 25.2301C286.677 25.5231 286.987 25.8857 287.246 26.3232L287.251 26.3316C287.512 26.753 287.909 27.0405 288.411 27.1899C288.939 27.3466 289.457 27.2903 289.923 27.0153L289.928 27.0125C290.345 26.7604 290.603 26.393 290.658 25.9327C290.73 25.4653 290.584 25.0089 290.294 24.5811C289.825 23.8646 289.27 23.2399 288.627 22.7102C287.974 22.1715 287.209 21.7532 286.339 21.4528C285.47 21.1466 284.467 21 283.339 21Z" fill="#FF7F5C"/>
<path d="M296.092 21.2241C295.577 21.2241 295.122 21.3923 294.759 21.7287C294.382 22.0598 294.206 22.4945 294.206 22.9856V39.8401C294.206 40.324 294.389 40.7514 294.753 41.0915C295.117 41.4315 295.574 41.6017 296.092 41.6017H308.141C308.648 41.6017 309.108 41.465 309.467 41.1532L309.474 41.1474L309.48 41.1412C309.834 40.8112 310 40.3887 310 39.9148C310 39.4507 309.828 39.0395 309.467 38.7261C309.108 38.4144 308.648 38.2777 308.141 38.2777H297.979V32.9877H305.129C305.636 32.9877 306.096 32.851 306.455 32.5393L306.462 32.5334L306.468 32.5273C306.817 32.2016 306.988 31.7898 306.988 31.3257C306.988 30.8646 306.819 30.4557 306.462 30.143C306.105 29.8131 305.644 29.6637 305.129 29.6637H297.979V24.5481H308.141C308.648 24.5481 309.108 24.4114 309.467 24.0996C309.828 23.7862 310 23.375 310 22.911C310 22.4405 309.836 22.0204 309.474 21.7033C309.117 21.3734 308.656 21.2241 308.141 21.2241H296.092Z" fill="#FF7F5C"/>
<path d="M256.225 21.2241C255.71 21.2241 255.254 21.3923 254.891 21.7287C254.515 22.0598 254.339 22.4945 254.339 22.9856V34.612C254.339 36.0394 254.727 37.3244 255.513 38.4517L255.516 38.456C256.315 39.5766 257.417 40.451 258.805 41.0816L258.81 41.0838C260.202 41.6989 261.788 42 263.555 42C265.271 42 266.814 41.6981 268.172 41.0817L268.177 41.0793C269.53 40.4474 270.596 39.5713 271.359 38.4495C272.143 37.3227 272.531 36.0385 272.531 34.612V22.9856C272.531 22.5045 272.371 22.0734 272.018 21.74C271.663 21.3885 271.198 21.2241 270.672 21.2241C270.157 21.2241 269.701 21.3923 269.338 21.7287C268.962 22.0598 268.786 22.4945 268.786 22.9856V34.612C268.786 35.4228 268.562 36.128 268.123 36.7429L268.122 36.7451C267.697 37.3479 267.094 37.8342 266.296 38.1999C265.522 38.5459 264.612 38.7258 263.555 38.7258C262.462 38.7258 261.505 38.5457 260.674 38.1967C259.859 37.8305 259.229 37.3428 258.769 36.7376C258.333 36.1239 258.111 35.4204 258.111 34.612V22.9856C258.111 22.4972 257.937 22.0646 257.565 21.7341C257.211 21.3867 256.748 21.2241 256.225 21.2241Z" fill="#FF7F5C"/>
<path d="M238.886 21.2241C238.371 21.2241 237.915 21.3923 237.552 21.7287C237.176 22.0598 237 22.4945 237 22.9856V39.8401C237 40.324 237.182 40.7514 237.546 41.0915C237.91 41.4315 238.368 41.6017 238.886 41.6017C239.404 41.6017 239.862 41.4315 240.226 41.0915C240.59 40.7514 240.772 40.324 240.772 39.8401V32.9877H247.922C248.43 32.9877 248.889 32.851 249.249 32.5393L249.255 32.5334L249.262 32.5273C249.611 32.2016 249.782 31.7898 249.782 31.3257C249.782 30.8646 249.612 30.4556 249.255 30.143C248.899 29.8131 248.437 29.6637 247.922 29.6637H240.772V24.5481H250.934C251.442 24.5481 251.901 24.4114 252.261 24.0996C252.622 23.7862 252.794 23.375 252.794 22.911C252.794 22.4405 252.629 22.0204 252.267 21.7033C251.911 21.3734 251.449 21.2241 250.934 21.2241H238.886Z" fill="#FF7F5C"/>
</svg>
