<svg xmlns="http://www.w3.org/2000/svg" xmlns:xlink="http://www.w3.org/1999/xlink" width="432" zoomAndPan="magnify" viewBox="0 0 324 56.249996" height="75" preserveAspectRatio="xMidYMid meet" version="1.0"><defs><clipPath id="d7d3d344a1"><path d="M 2.132812 0 L 55 0 L 55 55.511719 L 2.132812 55.511719 Z M 2.132812 0 " clip-rule="nonzero"/></clipPath><clipPath id="a81397dbd7"><path d="M 305 21 L 321.867188 21 L 321.867188 43 L 305 43 Z M 305 21 " clip-rule="nonzero"/></clipPath></defs><path fill="#000000" d="M 86.878906 23.371094 C 85.304688 22.429688 83.507812 21.949219 81.53125 21.949219 C 79.9375 21.949219 78.445312 22.269531 77.105469 22.902344 C 76.082031 23.386719 75.164062 24.007812 74.367188 24.757812 L 74.367188 15.644531 C 74.367188 14.96875 74.144531 14.414062 73.699219 13.992188 C 73.257812 13.574219 72.675781 13.359375 71.96875 13.359375 C 71.289062 13.359375 70.714844 13.570312 70.261719 13.992188 C 69.804688 14.414062 69.574219 14.96875 69.574219 15.644531 L 69.574219 32.679688 C 69.597656 34.699219 70.105469 36.546875 71.074219 38.167969 C 72.046875 39.785156 73.386719 41.082031 75.058594 42.019531 C 76.734375 42.960938 78.648438 43.4375 80.75 43.4375 C 82.875 43.4375 84.804688 42.960938 86.476562 42.019531 C 88.148438 41.082031 89.496094 39.785156 90.480469 38.167969 C 91.464844 36.550781 91.964844 34.699219 91.964844 32.675781 C 91.964844 30.65625 91.507812 28.816406 90.605469 27.214844 C 89.699219 25.605469 88.445312 24.3125 86.878906 23.371094 Z M 84.109375 38.457031 C 83.132812 39.027344 82 39.316406 80.75 39.316406 C 79.523438 39.316406 78.398438 39.027344 77.40625 38.457031 C 76.417969 37.882812 75.628906 37.085938 75.066406 36.082031 C 74.496094 35.070312 74.210938 33.925781 74.210938 32.675781 C 74.210938 31.402344 74.496094 30.253906 75.0625 29.273438 C 75.625 28.289062 76.414062 27.503906 77.40625 26.929688 C 78.398438 26.359375 79.523438 26.070312 80.75 26.070312 C 82 26.070312 83.132812 26.359375 84.109375 26.929688 C 85.089844 27.503906 85.878906 28.292969 86.457031 29.277344 C 87.035156 30.261719 87.328125 31.40625 87.328125 32.675781 C 87.328125 33.925781 87.035156 35.070312 86.457031 36.082031 C 85.878906 37.085938 85.089844 37.882812 84.109375 38.457031 Z M 84.109375 38.457031 " fill-opacity="1" fill-rule="nonzero"/><path fill="#000000" d="M 111.96875 23.324219 C 110.296875 22.414062 108.359375 21.949219 106.207031 21.949219 C 104.03125 21.949219 102.078125 22.414062 100.402344 23.324219 C 98.730469 24.242188 97.394531 25.519531 96.433594 27.125 C 95.476562 28.734375 94.992188 30.609375 94.992188 32.710938 C 94.992188 34.785156 95.480469 36.652344 96.433594 38.257812 C 97.394531 39.867188 98.730469 41.144531 100.402344 42.058594 C 102.078125 42.96875 104.027344 43.433594 106.207031 43.433594 C 108.382812 43.433594 110.335938 42.96875 112.007812 42.058594 C 113.683594 41.144531 115.011719 39.863281 115.960938 38.253906 C 116.90625 36.648438 117.382812 34.78125 117.382812 32.710938 C 117.382812 30.613281 116.898438 28.734375 115.941406 27.125 C 114.980469 25.519531 113.644531 24.242188 111.96875 23.324219 Z M 109.609375 38.472656 C 108.632812 39.03125 107.484375 39.316406 106.207031 39.316406 C 104.925781 39.316406 103.78125 39.03125 102.804688 38.472656 C 101.824219 37.914062 101.042969 37.132812 100.480469 36.152344 C 99.914062 35.167969 99.628906 34.007812 99.628906 32.710938 C 99.628906 31.410156 99.914062 30.246094 100.480469 29.25 C 101.046875 28.257812 101.828125 27.46875 102.804688 26.910156 C 103.785156 26.351562 104.929688 26.070312 106.207031 26.070312 C 107.484375 26.070312 108.632812 26.351562 109.609375 26.910156 C 110.589844 27.46875 111.363281 28.253906 111.914062 29.246094 C 112.46875 30.246094 112.75 31.410156 112.75 32.710938 C 112.75 34.011719 112.46875 35.167969 111.914062 36.15625 C 111.359375 37.132812 110.585938 37.914062 109.609375 38.472656 Z M 109.609375 38.472656 " fill-opacity="1" fill-rule="nonzero"/><path fill="#000000" d="M 132.074219 38.792969 L 130.742188 38.792969 C 130.027344 38.792969 129.433594 38.507812 128.933594 37.921875 C 128.414062 37.316406 128.160156 36.574219 128.160156 35.660156 L 128.160156 26.816406 L 131.09375 26.816406 C 131.746094 26.816406 132.28125 26.632812 132.695312 26.265625 C 133.121094 25.894531 133.335938 25.421875 133.335938 24.867188 C 133.335938 24.261719 133.121094 23.765625 132.695312 23.394531 C 132.28125 23.03125 131.746094 22.847656 131.09375 22.847656 L 128.160156 22.847656 L 128.160156 17.847656 C 128.160156 17.199219 127.9375 16.65625 127.496094 16.234375 C 127.050781 15.8125 126.484375 15.601562 125.800781 15.601562 C 125.121094 15.601562 124.550781 15.8125 124.109375 16.234375 C 123.667969 16.65625 123.445312 17.199219 123.445312 17.847656 L 123.445312 22.847656 L 122.039062 22.847656 C 121.390625 22.847656 120.851562 23.03125 120.4375 23.394531 C 120.015625 23.769531 119.800781 24.265625 119.800781 24.871094 C 119.800781 25.425781 120.015625 25.898438 120.4375 26.269531 C 120.851562 26.632812 121.390625 26.816406 122.039062 26.816406 L 123.445312 26.816406 L 123.445312 35.660156 C 123.445312 37.085938 123.765625 38.390625 124.390625 39.535156 C 125.023438 40.683594 125.902344 41.605469 127 42.273438 C 128.105469 42.945312 129.363281 43.285156 130.742188 43.285156 L 131.445312 43.285156 C 132.222656 43.285156 132.867188 43.078125 133.371094 42.671875 C 133.890625 42.25 134.15625 41.703125 134.15625 41.039062 C 134.15625 40.398438 133.957031 39.863281 133.566406 39.441406 C 133.164062 39.011719 132.664062 38.792969 132.074219 38.792969 Z M 132.074219 38.792969 " fill-opacity="1" fill-rule="nonzero"/><path fill="#000000" d="M 148.847656 31.363281 L 155.765625 25.480469 C 156.230469 25.066406 156.484375 24.578125 156.515625 24.03125 C 156.550781 23.476562 156.339844 22.96875 155.910156 22.53125 C 155.5 22.078125 154.992188 21.832031 154.398438 21.804688 C 153.804688 21.773438 153.265625 21.972656 152.800781 22.382812 L 143.9375 29.921875 L 143.9375 15.570312 C 143.9375 14.921875 143.722656 14.382812 143.292969 13.976562 C 142.863281 13.570312 142.300781 13.359375 141.621094 13.359375 C 140.9375 13.359375 140.375 13.570312 139.945312 13.976562 C 139.519531 14.382812 139.300781 14.921875 139.300781 15.570312 L 139.300781 41.074219 C 139.300781 41.722656 139.519531 42.261719 139.945312 42.667969 C 140.375 43.074219 140.9375 43.285156 141.621094 43.285156 C 142.300781 43.285156 142.863281 43.074219 143.292969 42.667969 C 143.71875 42.261719 143.9375 41.722656 143.9375 41.074219 L 143.9375 35.539062 L 145.445312 34.257812 L 152.640625 42.730469 C 153.046875 43.214844 153.570312 43.480469 154.191406 43.523438 C 154.253906 43.53125 154.316406 43.53125 154.378906 43.53125 C 154.917969 43.53125 155.417969 43.355469 155.867188 43.011719 C 156.394531 42.597656 156.6875 42.097656 156.734375 41.535156 C 156.78125 40.976562 156.601562 40.453125 156.195312 39.976562 Z M 148.847656 31.363281 " fill-opacity="1" fill-rule="nonzero"/><path fill="#000000" d="M 179.675781 22.0625 C 178.996094 22.0625 178.421875 22.273438 177.96875 22.691406 C 177.511719 23.113281 177.277344 23.667969 177.277344 24.347656 L 177.277344 34.875 C 177.277344 35.691406 177.039062 36.433594 176.566406 37.089844 C 176.082031 37.753906 175.425781 38.292969 174.617188 38.683594 C 173.800781 39.078125 172.855469 39.277344 171.800781 39.277344 C 170.6875 39.277344 169.679688 39.070312 168.796875 38.664062 C 167.933594 38.261719 167.242188 37.636719 166.734375 36.796875 C 166.222656 35.953125 165.964844 34.851562 165.964844 33.53125 L 165.964844 24.347656 C 165.964844 23.695312 165.734375 23.148438 165.28125 22.714844 C 164.824219 22.28125 164.25 22.0625 163.570312 22.0625 C 162.886719 22.0625 162.3125 22.28125 161.859375 22.714844 C 161.402344 23.148438 161.175781 23.695312 161.175781 24.34375 L 161.175781 33.53125 C 161.175781 35.652344 161.605469 37.472656 162.457031 38.941406 C 163.316406 40.421875 164.503906 41.558594 165.988281 42.324219 C 167.464844 43.082031 169.15625 43.46875 171.019531 43.46875 C 172.832031 43.46875 174.472656 43.089844 175.894531 42.339844 C 176.402344 42.074219 176.878906 41.765625 177.320312 41.421875 C 177.398438 41.890625 177.617188 42.296875 177.96875 42.632812 C 178.421875 43.066406 179 43.285156 179.683594 43.285156 C 180.394531 43.285156 180.976562 43.0625 181.417969 42.625 C 181.855469 42.195312 182.078125 41.648438 182.078125 41 L 182.078125 24.347656 C 182.078125 23.671875 181.855469 23.117188 181.414062 22.695312 C 180.964844 22.273438 180.382812 22.0625 179.675781 22.0625 Z M 179.675781 22.0625 " fill-opacity="1" fill-rule="nonzero"/><path fill="#000000" d="M 204.601562 23.371094 C 203.027344 22.429688 201.230469 21.949219 199.253906 21.949219 C 197.660156 21.949219 196.167969 22.269531 194.828125 22.902344 C 193.804688 23.386719 192.886719 24.007812 192.089844 24.757812 L 192.089844 15.644531 C 192.089844 14.96875 191.867188 14.414062 191.421875 13.992188 C 190.980469 13.574219 190.398438 13.359375 189.691406 13.359375 C 189.011719 13.359375 188.441406 13.570312 187.984375 13.992188 C 187.527344 14.414062 187.292969 14.96875 187.292969 15.644531 L 187.292969 32.679688 C 187.320312 34.699219 187.828125 36.546875 188.796875 38.167969 C 189.769531 39.785156 191.109375 41.082031 192.78125 42.019531 C 194.457031 42.960938 196.371094 43.4375 198.472656 43.4375 C 200.601562 43.4375 202.527344 42.960938 204.199219 42.019531 C 205.875 41.082031 207.21875 39.785156 208.203125 38.167969 C 209.1875 36.550781 209.6875 34.699219 209.6875 32.675781 C 209.6875 30.65625 209.230469 28.816406 208.328125 27.214844 C 207.421875 25.605469 206.167969 24.3125 204.601562 23.371094 Z M 201.832031 38.457031 C 200.855469 39.027344 199.722656 39.316406 198.472656 39.316406 C 197.246094 39.316406 196.121094 39.027344 195.128906 38.457031 C 194.140625 37.882812 193.351562 37.085938 192.785156 36.082031 C 192.21875 35.070312 191.933594 33.925781 191.933594 32.675781 C 191.933594 31.402344 192.21875 30.253906 192.785156 29.273438 C 193.347656 28.289062 194.136719 27.503906 195.128906 26.929688 C 196.121094 26.359375 197.246094 26.070312 198.472656 26.070312 C 199.722656 26.070312 200.855469 26.359375 201.832031 26.929688 C 202.8125 27.503906 203.601562 28.292969 204.179688 29.277344 C 204.757812 30.261719 205.050781 31.40625 205.050781 32.675781 C 205.050781 33.925781 204.757812 35.070312 204.179688 36.082031 C 203.601562 37.085938 202.808594 37.882812 201.832031 38.457031 Z M 201.832031 38.457031 " fill-opacity="1" fill-rule="nonzero"/><path fill="#000000" d="M 233 27 C 232.199219 25.433594 231.019531 24.1875 229.5 23.292969 C 227.980469 22.402344 226.140625 21.949219 224.039062 21.949219 C 221.914062 21.949219 220 22.414062 218.351562 23.328125 C 216.703125 24.242188 215.394531 25.523438 214.460938 27.132812 C 213.53125 28.738281 213.058594 30.613281 213.058594 32.710938 C 213.058594 34.789062 213.558594 36.652344 214.542969 38.261719 C 215.527344 39.871094 216.910156 41.148438 218.652344 42.0625 C 220.386719 42.972656 222.398438 43.433594 224.625 43.433594 C 225.867188 43.433594 227.179688 43.214844 228.535156 42.777344 C 229.890625 42.34375 231.046875 41.769531 231.960938 41.078125 C 232.648438 40.578125 232.765625 39.996094 232.746094 39.597656 C 232.714844 39.046875 232.429688 38.542969 231.898438 38.097656 C 231.484375 37.761719 230.992188 37.601562 230.433594 37.617188 C 229.898438 37.628906 229.394531 37.800781 228.933594 38.121094 C 228.441406 38.472656 227.785156 38.785156 226.980469 39.054688 C 226.179688 39.328125 225.386719 39.464844 224.625 39.464844 C 223.210938 39.464844 221.945312 39.167969 220.859375 38.578125 C 219.78125 37.996094 218.917969 37.1875 218.304688 36.179688 C 217.972656 35.632812 217.726562 35.035156 217.574219 34.394531 L 231.992188 34.394531 C 232.621094 34.394531 233.148438 34.203125 233.5625 33.824219 C 233.980469 33.441406 234.191406 32.953125 234.191406 32.375 C 234.195312 30.359375 233.792969 28.550781 233 27 Z M 220.425781 26.796875 C 221.417969 26.214844 222.632812 25.917969 224.039062 25.917969 C 225.261719 25.917969 226.308594 26.1875 227.152344 26.714844 C 228.003906 27.246094 228.667969 27.980469 229.128906 28.894531 C 229.398438 29.429688 229.597656 30.019531 229.722656 30.648438 L 217.628906 30.648438 C 217.757812 30.132812 217.9375 29.644531 218.164062 29.195312 C 218.679688 28.183594 219.4375 27.378906 220.425781 26.796875 Z M 220.425781 26.796875 " fill-opacity="1" fill-rule="nonzero"/><path fill="#aacaf9" d="M 6.175781 15.664062 L 28.273438 27.609375 L 28.273438 50.917969 L 49.941406 39.390625 L 49.941406 15.882812 L 27.894531 3.960938 Z M 6.175781 15.664062 " fill-opacity="1" fill-rule="nonzero"/><path fill="#2d78d3" d="M 32.84375 25.3125 L 32.84375 34.691406 L 36.96875 32.417969 L 36.96875 23.042969 Z M 32.84375 25.3125 " fill-opacity="1" fill-rule="nonzero"/><path fill="#2d78d3" d="M 34.925781 38.261719 L 43.679688 33.550781 L 43.640625 38.09375 L 34.886719 42.800781 Z M 34.925781 38.261719 " fill-opacity="1" fill-rule="nonzero"/><path fill="#2d78d3" d="M 41.390625 20.628906 L 41.390625 30.066406 L 45.519531 27.796875 L 45.519531 18.355469 Z M 41.390625 20.628906 " fill-opacity="1" fill-rule="nonzero"/><g clip-path="url(#d7d3d344a1)"><path fill="#2d78d3" d="M 54.046875 13.570312 L 30.308594 0.621094 C 28.796875 -0.203125 26.941406 -0.207031 25.425781 0.609375 L 4.636719 11.824219 C 3.089844 12.65625 2.136719 14.222656 2.136719 15.914062 L 2.136719 38.929688 C 2.136719 40.625 3.09375 42.1875 4.644531 43.023438 L 25.800781 54.40625 C 27.308594 55.21875 29.15625 55.21875 30.664062 54.402344 L 51.574219 43.078125 C 53.117188 42.242188 54.070312 40.683594 54.070312 38.992188 L 54.070312 13.558594 Z M 49.941406 39.390625 L 28.273438 50.917969 L 28.273438 27.609375 L 6.175781 15.664062 L 27.894531 3.960938 L 49.941406 15.882812 Z M 49.941406 39.390625 " fill-opacity="1" fill-rule="nonzero"/></g><path fill="#ff7f5c" d="M 294.367188 21.660156 C 292.882812 21.660156 291.519531 21.871094 290.28125 22.304688 L 290.28125 22.308594 C 289.050781 22.742188 288.054688 23.390625 287.3125 24.253906 C 286.550781 25.136719 286.179688 26.203125 286.179688 27.429688 C 286.179688 29.117188 286.902344 30.542969 288.3125 31.671875 C 289.714844 32.800781 291.613281 33.449219 293.957031 33.660156 C 295.648438 33.828125 296.75 34.253906 297.378906 34.855469 L 297.382812 34.859375 C 298.070312 35.5 298.386719 36.191406 298.386719 36.957031 C 298.386719 37.570312 298.195312 38.0625 297.828125 38.460938 C 297.433594 38.871094 296.90625 39.199219 296.222656 39.429688 L 296.21875 39.433594 C 295.550781 39.667969 294.808594 39.789062 293.980469 39.789062 C 293.246094 39.789062 292.550781 39.683594 291.890625 39.476562 C 291.222656 39.269531 290.660156 39 290.199219 38.679688 C 289.753906 38.355469 289.457031 38.019531 289.28125 37.671875 C 289.070312 37.261719 288.746094 36.941406 288.316406 36.738281 C 287.90625 36.515625 287.460938 36.441406 287.003906 36.535156 C 286.4375 36.644531 285.96875 36.902344 285.679688 37.347656 L 285.671875 37.355469 L 285.667969 37.363281 C 285.394531 37.824219 285.410156 38.320312 285.648438 38.796875 C 286.050781 39.675781 286.679688 40.441406 287.519531 41.101562 C 288.363281 41.757812 289.34375 42.265625 290.460938 42.625 C 291.578125 42.984375 292.753906 43.164062 293.980469 43.164062 C 295.015625 43.164062 296.015625 43.039062 296.980469 42.789062 C 297.964844 42.535156 298.847656 42.152344 299.617188 41.636719 L 299.617188 41.632812 C 300.410156 41.097656 301.039062 40.4375 301.496094 39.65625 C 301.988281 38.855469 302.222656 37.921875 302.222656 36.878906 C 302.222656 35.066406 301.558594 33.570312 300.210938 32.441406 C 298.898438 31.308594 297.085938 30.65625 294.832031 30.441406 C 293.425781 30.308594 292.394531 30.078125 291.703125 29.769531 C 291.011719 29.453125 290.585938 29.109375 290.363281 28.757812 C 290.128906 28.347656 290.015625 27.933594 290.015625 27.507812 C 290.015625 27.070312 290.113281 26.71875 290.292969 26.429688 C 290.46875 26.144531 290.738281 25.898438 291.128906 25.695312 L 291.132812 25.691406 C 291.949219 25.246094 292.988281 25.019531 294.277344 25.035156 L 294.285156 25.035156 C 295.007812 25.035156 295.609375 25.132812 296.105469 25.3125 L 296.113281 25.3125 L 296.117188 25.316406 C 296.632812 25.484375 297.070312 25.722656 297.4375 26.023438 C 297.808594 26.324219 298.128906 26.699219 298.398438 27.148438 L 298.402344 27.15625 C 298.671875 27.59375 299.082031 27.890625 299.597656 28.042969 C 300.144531 28.203125 300.675781 28.148438 301.15625 27.863281 L 301.164062 27.859375 C 301.59375 27.601562 301.859375 27.222656 301.914062 26.746094 C 301.988281 26.265625 301.839844 25.792969 301.539062 25.351562 C 301.058594 24.613281 300.484375 23.96875 299.820312 23.421875 C 299.148438 22.867188 298.359375 22.4375 297.460938 22.125 C 296.566406 21.808594 295.53125 21.660156 294.367188 21.660156 Z M 294.367188 21.660156 " fill-opacity="1" fill-rule="nonzero"/><g clip-path="url(#a81397dbd7)"><path fill="#ff7f5c" d="M 307.519531 21.890625 C 306.988281 21.890625 306.519531 22.0625 306.144531 22.410156 C 305.757812 22.753906 305.574219 23.199219 305.574219 23.707031 L 305.574219 41.089844 C 305.574219 41.589844 305.765625 42.03125 306.140625 42.382812 C 306.515625 42.730469 306.984375 42.90625 307.519531 42.90625 L 319.949219 42.90625 C 320.46875 42.90625 320.945312 42.765625 321.316406 42.445312 L 321.328125 42.433594 C 321.695312 42.09375 321.863281 41.65625 321.863281 41.167969 C 321.863281 40.6875 321.6875 40.265625 321.316406 39.941406 C 320.945312 39.621094 320.46875 39.480469 319.949219 39.480469 L 309.464844 39.480469 L 309.464844 34.023438 L 316.839844 34.023438 C 317.363281 34.023438 317.839844 33.882812 318.207031 33.5625 L 318.222656 33.546875 C 318.582031 33.210938 318.757812 32.789062 318.757812 32.308594 C 318.757812 31.832031 318.585938 31.410156 318.214844 31.089844 C 317.847656 30.75 317.371094 30.59375 316.839844 30.59375 L 309.464844 30.59375 L 309.464844 25.320312 L 319.949219 25.320312 C 320.46875 25.320312 320.945312 25.175781 321.316406 24.855469 C 321.6875 24.53125 321.863281 24.109375 321.863281 23.628906 C 321.863281 23.144531 321.695312 22.710938 321.324219 22.382812 C 320.953125 22.042969 320.480469 21.890625 319.949219 21.890625 Z M 307.519531 21.890625 " fill-opacity="1" fill-rule="nonzero"/></g><path fill="#ff7f5c" d="M 266.402344 21.890625 C 265.871094 21.890625 265.402344 22.0625 265.027344 22.410156 C 264.636719 22.753906 264.457031 23.199219 264.457031 23.707031 L 264.457031 35.699219 C 264.457031 37.171875 264.855469 38.496094 265.667969 39.660156 L 265.671875 39.664062 C 266.496094 40.820312 267.632812 41.71875 269.0625 42.371094 L 269.066406 42.375 C 270.503906 43.007812 272.140625 43.316406 273.960938 43.316406 C 275.730469 43.316406 277.324219 43.007812 278.722656 42.371094 L 278.730469 42.367188 C 280.125 41.71875 281.222656 40.8125 282.011719 39.65625 C 282.820312 38.496094 283.21875 37.167969 283.21875 35.699219 L 283.21875 23.707031 C 283.21875 23.210938 283.054688 22.765625 282.691406 22.421875 C 282.324219 22.058594 281.84375 21.890625 281.300781 21.890625 C 280.769531 21.890625 280.300781 22.0625 279.925781 22.410156 C 279.539062 22.753906 279.355469 23.199219 279.355469 23.707031 L 279.355469 35.699219 C 279.355469 36.535156 279.125 37.261719 278.671875 37.894531 L 278.671875 37.898438 C 278.234375 38.519531 277.613281 39.023438 276.789062 39.398438 C 275.992188 39.753906 275.050781 39.941406 273.960938 39.941406 C 272.835938 39.941406 271.847656 39.753906 270.992188 39.394531 C 270.148438 39.019531 269.5 38.515625 269.027344 37.890625 C 268.578125 37.257812 268.347656 36.53125 268.347656 35.699219 L 268.347656 23.707031 C 268.347656 23.203125 268.167969 22.757812 267.785156 22.417969 C 267.417969 22.058594 266.941406 21.890625 266.402344 21.890625 Z M 266.402344 21.890625 " fill-opacity="1" fill-rule="nonzero"/><path fill="#ff7f5c" d="M 248.519531 21.890625 C 247.988281 21.890625 247.515625 22.0625 247.144531 22.410156 C 246.753906 22.753906 246.574219 23.199219 246.574219 23.707031 L 246.574219 41.089844 C 246.574219 41.589844 246.761719 42.03125 247.136719 42.382812 C 247.511719 42.730469 247.984375 42.90625 248.519531 42.90625 C 249.054688 42.90625 249.527344 42.730469 249.902344 42.382812 C 250.277344 42.03125 250.464844 41.589844 250.464844 41.089844 L 250.464844 34.023438 L 257.839844 34.023438 C 258.363281 34.023438 258.835938 33.882812 259.207031 33.5625 L 259.214844 33.554688 L 259.21875 33.546875 C 259.582031 33.210938 259.757812 32.789062 259.757812 32.308594 C 259.757812 31.832031 259.582031 31.410156 259.214844 31.089844 C 258.847656 30.75 258.371094 30.59375 257.839844 30.59375 L 250.464844 30.59375 L 250.464844 25.320312 L 260.945312 25.320312 C 261.46875 25.320312 261.941406 25.175781 262.3125 24.855469 C 262.6875 24.53125 262.863281 24.109375 262.863281 23.628906 C 262.863281 23.144531 262.691406 22.710938 262.320312 22.382812 C 261.953125 22.042969 261.476562 21.890625 260.945312 21.890625 Z M 248.519531 21.890625 " fill-opacity="1" fill-rule="nonzero"/></svg>