<svg xmlns="http://www.w3.org/2000/svg" xmlns:xlink="http://www.w3.org/1999/xlink" width="432" zoomAndPan="magnify" viewBox="0 0 324 56.249996" height="75" preserveAspectRatio="xMidYMid meet" version="1.0"><defs><clipPath id="a87892e1d6"><path d="M 2.132812 0 L 55 0 L 55 55 L 2.132812 55 Z M 2.132812 0 " clip-rule="nonzero"/></clipPath><clipPath id="46f8e71d09"><path d="M 305 21 L 321.867188 21 L 321.867188 43 L 305 43 Z M 305 21 " clip-rule="nonzero"/></clipPath></defs><path fill="#ffffff" d="M 86.878906 23.292969 C 85.304688 22.351562 83.507812 21.878906 81.53125 21.878906 C 79.9375 21.878906 78.445312 22.195312 77.105469 22.828125 C 76.082031 23.308594 75.164062 23.925781 74.367188 24.675781 L 74.367188 15.589844 C 74.367188 14.921875 74.144531 14.367188 73.699219 13.945312 C 73.257812 13.527344 72.675781 13.316406 71.96875 13.316406 C 71.289062 13.316406 70.714844 13.527344 70.261719 13.945312 C 69.804688 14.363281 69.574219 14.917969 69.574219 15.59375 L 69.574219 32.570312 C 69.597656 34.585938 70.105469 36.425781 71.074219 38.039062 C 72.046875 39.652344 73.386719 40.945312 75.058594 41.882812 C 76.734375 42.816406 78.648438 43.292969 80.75 43.292969 C 82.875 43.292969 84.804688 42.816406 86.476562 41.882812 C 88.148438 40.945312 89.496094 39.65625 90.480469 38.042969 C 91.464844 36.429688 91.964844 34.585938 91.964844 32.566406 C 91.964844 30.554688 91.507812 28.722656 90.605469 27.121094 C 89.699219 25.519531 88.445312 24.230469 86.878906 23.292969 Z M 84.109375 38.328125 C 83.132812 38.894531 82 39.183594 80.75 39.183594 C 79.523438 39.183594 78.398438 38.894531 77.40625 38.328125 C 76.417969 37.757812 75.628906 36.960938 75.066406 35.960938 C 74.496094 34.957031 74.210938 33.8125 74.210938 32.566406 C 74.210938 31.296875 74.496094 30.152344 75.0625 29.175781 C 75.625 28.195312 76.414062 27.414062 77.40625 26.839844 C 78.398438 26.273438 79.523438 25.984375 80.75 25.984375 C 82 25.984375 83.132812 26.273438 84.109375 26.839844 C 85.089844 27.414062 85.878906 28.199219 86.457031 29.179688 C 87.035156 30.160156 87.328125 31.300781 87.328125 32.566406 C 87.328125 33.8125 87.035156 34.953125 86.457031 35.960938 C 85.878906 36.960938 85.089844 37.757812 84.109375 38.328125 Z M 84.109375 38.328125 " fill-opacity="1" fill-rule="nonzero"/><path fill="#ffffff" d="M 111.96875 23.25 C 110.296875 22.339844 108.359375 21.878906 106.207031 21.878906 C 104.03125 21.878906 102.078125 22.339844 100.402344 23.25 C 98.730469 24.160156 97.394531 25.433594 96.433594 27.035156 C 95.476562 28.636719 94.992188 30.507812 94.992188 32.601562 C 94.992188 34.671875 95.480469 36.527344 96.433594 38.128906 C 97.394531 39.734375 98.730469 41.007812 100.402344 41.917969 C 102.078125 42.828125 104.027344 43.289062 106.207031 43.289062 C 108.382812 43.289062 110.335938 42.828125 112.007812 41.917969 C 113.683594 41.007812 115.011719 39.734375 115.960938 38.125 C 116.90625 36.527344 117.382812 34.667969 117.382812 32.601562 C 117.382812 30.511719 116.898438 28.636719 115.941406 27.035156 C 114.980469 25.433594 113.644531 24.160156 111.96875 23.25 Z M 109.609375 38.34375 C 108.632812 38.902344 107.484375 39.183594 106.207031 39.183594 C 104.925781 39.183594 103.78125 38.902344 102.804688 38.34375 C 101.824219 37.789062 101.042969 37.007812 100.480469 36.03125 C 99.914062 35.050781 99.628906 33.894531 99.628906 32.601562 C 99.628906 31.304688 99.914062 30.144531 100.480469 29.152344 C 101.046875 28.164062 101.828125 27.378906 102.804688 26.820312 C 103.785156 26.265625 104.929688 25.980469 106.207031 25.980469 C 107.484375 25.980469 108.632812 26.265625 109.609375 26.820312 C 110.589844 27.378906 111.363281 28.160156 111.914062 29.152344 C 112.46875 30.144531 112.75 31.308594 112.75 32.601562 C 112.75 33.898438 112.46875 35.050781 111.914062 36.035156 C 111.359375 37.011719 110.585938 37.789062 109.609375 38.34375 Z M 109.609375 38.34375 " fill-opacity="1" fill-rule="nonzero"/><path fill="#ffffff" d="M 132.074219 38.664062 L 130.742188 38.664062 C 130.027344 38.664062 129.433594 38.378906 128.933594 37.796875 C 128.414062 37.191406 128.160156 36.453125 128.160156 35.542969 L 128.160156 26.726562 L 131.09375 26.726562 C 131.746094 26.726562 132.28125 26.542969 132.695312 26.179688 C 133.121094 25.808594 133.335938 25.339844 133.335938 24.785156 C 133.335938 24.183594 133.121094 23.6875 132.695312 23.316406 C 132.28125 22.953125 131.746094 22.769531 131.09375 22.769531 L 128.160156 22.769531 L 128.160156 17.789062 C 128.160156 17.140625 127.9375 16.601562 127.496094 16.179688 C 127.050781 15.761719 126.484375 15.550781 125.800781 15.550781 C 125.121094 15.550781 124.550781 15.761719 124.109375 16.183594 C 123.667969 16.601562 123.445312 17.144531 123.445312 17.789062 L 123.445312 22.773438 L 122.039062 22.773438 C 121.390625 22.773438 120.851562 22.957031 120.4375 23.320312 C 120.015625 23.691406 119.800781 24.183594 119.800781 24.789062 C 119.800781 25.339844 120.015625 25.8125 120.4375 26.179688 C 120.851562 26.542969 121.390625 26.726562 122.039062 26.726562 L 123.445312 26.726562 L 123.445312 35.542969 C 123.445312 36.964844 123.765625 38.261719 124.390625 39.402344 C 125.023438 40.546875 125.902344 41.46875 127 42.132812 C 128.105469 42.800781 129.363281 43.140625 130.742188 43.140625 L 131.445312 43.140625 C 132.222656 43.140625 132.867188 42.9375 133.371094 42.53125 C 133.890625 42.109375 134.15625 41.5625 134.15625 40.902344 C 134.15625 40.265625 133.957031 39.730469 133.566406 39.3125 C 133.164062 38.878906 132.664062 38.664062 132.074219 38.664062 Z M 132.074219 38.664062 " fill-opacity="1" fill-rule="nonzero"/><path fill="#ffffff" d="M 148.847656 31.257812 L 155.765625 25.398438 C 156.230469 24.984375 156.484375 24.496094 156.515625 23.949219 C 156.550781 23.398438 156.339844 22.894531 155.910156 22.457031 C 155.5 22.003906 154.992188 21.761719 154.398438 21.730469 C 153.804688 21.699219 153.265625 21.898438 152.800781 22.308594 L 143.9375 29.820312 L 143.9375 15.519531 C 143.9375 14.871094 143.722656 14.335938 143.292969 13.929688 C 142.863281 13.523438 142.300781 13.316406 141.621094 13.316406 C 140.9375 13.316406 140.375 13.523438 139.945312 13.929688 C 139.519531 14.335938 139.300781 14.871094 139.300781 15.519531 L 139.300781 40.9375 C 139.300781 41.585938 139.519531 42.121094 139.945312 42.527344 C 140.375 42.933594 140.9375 43.140625 141.621094 43.140625 C 142.300781 43.140625 142.863281 42.933594 143.292969 42.527344 C 143.71875 42.121094 143.9375 41.585938 143.9375 40.9375 L 143.9375 35.421875 L 145.445312 34.144531 L 152.640625 42.589844 C 153.046875 43.070312 153.570312 43.335938 154.191406 43.378906 C 154.253906 43.386719 154.316406 43.386719 154.378906 43.386719 C 154.917969 43.386719 155.417969 43.214844 155.867188 42.867188 C 156.394531 42.453125 156.6875 41.960938 156.734375 41.398438 C 156.78125 40.839844 156.601562 40.320312 156.195312 39.84375 Z M 148.847656 31.257812 " fill-opacity="1" fill-rule="nonzero"/><path fill="#ffffff" d="M 179.675781 21.988281 C 178.996094 21.988281 178.421875 22.199219 177.96875 22.617188 C 177.511719 23.035156 177.277344 23.589844 177.277344 24.265625 L 177.277344 34.761719 C 177.277344 35.570312 177.039062 36.3125 176.566406 36.964844 C 176.082031 37.628906 175.425781 38.164062 174.617188 38.554688 C 173.800781 38.945312 172.855469 39.148438 171.800781 39.148438 C 170.6875 39.148438 169.679688 38.941406 168.796875 38.535156 C 167.933594 38.136719 167.242188 37.511719 166.734375 36.675781 C 166.222656 35.832031 165.964844 34.738281 165.964844 33.421875 L 165.964844 24.265625 C 165.964844 23.617188 165.734375 23.070312 165.28125 22.636719 C 164.824219 22.207031 164.25 21.988281 163.570312 21.988281 C 162.886719 21.988281 162.3125 22.207031 161.859375 22.636719 C 161.402344 23.070312 161.175781 23.617188 161.175781 24.261719 L 161.175781 33.417969 C 161.175781 35.535156 161.605469 37.347656 162.457031 38.8125 C 163.316406 40.285156 164.503906 41.417969 165.988281 42.183594 C 167.464844 42.941406 169.15625 43.328125 171.019531 43.328125 C 172.832031 43.328125 174.472656 42.945312 175.894531 42.199219 C 176.402344 41.933594 176.878906 41.625 177.320312 41.285156 C 177.398438 41.75 177.617188 42.15625 177.96875 42.488281 C 178.421875 42.921875 179 43.140625 179.683594 43.140625 C 180.394531 43.140625 180.976562 42.921875 181.417969 42.484375 C 181.855469 42.054688 182.078125 41.507812 182.078125 40.863281 L 182.078125 24.265625 C 182.078125 23.59375 181.855469 23.039062 181.414062 22.621094 C 180.964844 22.199219 180.382812 21.988281 179.675781 21.988281 Z M 179.675781 21.988281 " fill-opacity="1" fill-rule="nonzero"/><path fill="#ffffff" d="M 204.601562 23.292969 C 203.027344 22.351562 201.230469 21.878906 199.253906 21.878906 C 197.660156 21.878906 196.167969 22.195312 194.828125 22.828125 C 193.804688 23.308594 192.886719 23.925781 192.089844 24.675781 L 192.089844 15.589844 C 192.089844 14.921875 191.867188 14.367188 191.421875 13.945312 C 190.980469 13.527344 190.398438 13.316406 189.691406 13.316406 C 189.011719 13.316406 188.441406 13.527344 187.984375 13.945312 C 187.527344 14.363281 187.292969 14.917969 187.292969 15.59375 L 187.292969 32.570312 C 187.320312 34.585938 187.828125 36.425781 188.796875 38.039062 C 189.769531 39.652344 191.109375 40.945312 192.78125 41.882812 C 194.457031 42.816406 196.371094 43.292969 198.472656 43.292969 C 200.601562 43.292969 202.527344 42.816406 204.199219 41.882812 C 205.875 40.945312 207.21875 39.65625 208.203125 38.042969 C 209.1875 36.429688 209.6875 34.585938 209.6875 32.566406 C 209.6875 30.554688 209.230469 28.722656 208.328125 27.121094 C 207.421875 25.519531 206.167969 24.230469 204.601562 23.292969 Z M 201.832031 38.328125 C 200.855469 38.894531 199.722656 39.183594 198.472656 39.183594 C 197.246094 39.183594 196.121094 38.894531 195.128906 38.328125 C 194.140625 37.757812 193.351562 36.960938 192.785156 35.960938 C 192.21875 34.957031 191.933594 33.8125 191.933594 32.566406 C 191.933594 31.296875 192.21875 30.152344 192.785156 29.175781 C 193.347656 28.195312 194.136719 27.414062 195.128906 26.839844 C 196.121094 26.273438 197.246094 25.984375 198.472656 25.984375 C 199.722656 25.984375 200.855469 26.273438 201.832031 26.839844 C 202.8125 27.414062 203.601562 28.199219 204.179688 29.179688 C 204.757812 30.160156 205.050781 31.300781 205.050781 32.566406 C 205.050781 33.8125 204.757812 34.953125 204.179688 35.960938 C 203.601562 36.960938 202.808594 37.757812 201.832031 38.328125 Z M 201.832031 38.328125 " fill-opacity="1" fill-rule="nonzero"/><path fill="#ffffff" d="M 233 26.910156 C 232.199219 25.351562 231.019531 24.105469 229.5 23.214844 C 227.980469 22.328125 226.140625 21.878906 224.039062 21.878906 C 221.914062 21.878906 220 22.339844 218.351562 23.25 C 216.703125 24.160156 215.394531 25.4375 214.460938 27.042969 C 213.53125 28.640625 213.058594 30.511719 213.058594 32.601562 C 213.058594 34.671875 213.558594 36.53125 214.542969 38.132812 C 215.527344 39.738281 216.910156 41.011719 218.652344 41.921875 C 220.386719 42.828125 222.398438 43.289062 224.625 43.289062 C 225.867188 43.289062 227.179688 43.070312 228.535156 42.636719 C 229.890625 42.203125 231.046875 41.632812 231.960938 40.941406 C 232.648438 40.441406 232.765625 39.863281 232.746094 39.464844 C 232.714844 38.917969 232.429688 38.417969 231.898438 37.96875 C 231.484375 37.636719 230.992188 37.476562 230.433594 37.492188 C 229.898438 37.503906 229.394531 37.675781 228.933594 37.996094 C 228.441406 38.34375 227.785156 38.65625 226.980469 38.925781 C 226.179688 39.195312 225.386719 39.332031 224.625 39.332031 C 223.210938 39.332031 221.945312 39.035156 220.859375 38.453125 C 219.78125 37.867188 218.917969 37.0625 218.304688 36.058594 C 217.972656 35.515625 217.726562 34.921875 217.574219 34.28125 L 231.992188 34.28125 C 232.621094 34.28125 233.148438 34.089844 233.5625 33.710938 C 233.980469 33.328125 234.191406 32.84375 234.191406 32.265625 C 234.195312 30.257812 233.792969 28.457031 233 26.910156 Z M 220.425781 26.707031 C 221.417969 26.128906 222.632812 25.832031 224.039062 25.832031 C 225.261719 25.832031 226.308594 26.101562 227.152344 26.625 C 228.003906 27.15625 228.667969 27.886719 229.128906 28.800781 C 229.398438 29.332031 229.597656 29.917969 229.722656 30.546875 L 217.628906 30.546875 C 217.757812 30.03125 217.9375 29.546875 218.164062 29.097656 C 218.679688 28.089844 219.4375 27.285156 220.425781 26.707031 Z M 220.425781 26.707031 " fill-opacity="1" fill-rule="nonzero"/><path fill="#aacaf9" d="M 6.175781 15.609375 L 28.273438 27.515625 L 28.273438 50.746094 L 49.941406 39.261719 L 49.941406 15.828125 L 27.894531 3.949219 Z M 6.175781 15.609375 " fill-opacity="1" fill-rule="nonzero"/><path fill="#2d78d3" d="M 32.84375 25.230469 L 32.84375 34.574219 L 36.96875 32.3125 L 36.96875 22.96875 Z M 32.84375 25.230469 " fill-opacity="1" fill-rule="nonzero"/><path fill="#2d78d3" d="M 34.925781 38.132812 L 43.679688 33.441406 L 43.640625 37.964844 L 34.886719 42.660156 Z M 34.925781 38.132812 " fill-opacity="1" fill-rule="nonzero"/><path fill="#2d78d3" d="M 41.390625 20.558594 L 41.390625 29.96875 L 45.519531 27.703125 L 45.519531 18.296875 Z M 41.390625 20.558594 " fill-opacity="1" fill-rule="nonzero"/><g clip-path="url(#a87892e1d6)"><path fill="#2d78d3" d="M 54.046875 13.523438 L 30.308594 0.617188 C 28.796875 -0.203125 26.941406 -0.207031 25.425781 0.609375 L 4.636719 11.785156 C 3.089844 12.617188 2.136719 14.171875 2.136719 15.859375 L 2.136719 38.800781 C 2.136719 40.492188 3.09375 42.046875 4.644531 42.878906 L 25.800781 54.226562 C 27.308594 55.035156 29.15625 55.035156 30.664062 54.21875 L 51.574219 42.933594 C 53.117188 42.101562 54.070312 40.546875 54.070312 38.859375 L 54.070312 13.515625 Z M 49.941406 39.261719 L 28.273438 50.746094 L 28.273438 27.515625 L 6.175781 15.609375 L 27.894531 3.949219 L 49.941406 15.828125 Z M 49.941406 39.261719 " fill-opacity="1" fill-rule="nonzero"/></g><path fill="#ff7f5c" d="M 294.367188 21.585938 C 292.882812 21.585938 291.519531 21.800781 290.28125 22.230469 L 290.28125 22.234375 C 289.050781 22.667969 288.054688 23.3125 287.3125 24.171875 C 286.550781 25.050781 286.179688 26.117188 286.179688 27.339844 C 286.179688 29.019531 286.902344 30.441406 288.3125 31.566406 C 289.714844 32.691406 291.613281 33.339844 293.957031 33.550781 C 295.648438 33.714844 296.75 34.136719 297.378906 34.738281 L 297.382812 34.742188 C 298.070312 35.378906 298.386719 36.074219 298.386719 36.832031 C 298.386719 37.445312 298.195312 37.9375 297.828125 38.335938 C 297.433594 38.742188 296.90625 39.066406 296.222656 39.300781 L 296.21875 39.300781 C 295.550781 39.535156 294.808594 39.65625 293.980469 39.65625 C 293.246094 39.65625 292.550781 39.550781 291.890625 39.347656 C 291.222656 39.140625 290.660156 38.871094 290.199219 38.550781 C 289.753906 38.230469 289.457031 37.894531 289.28125 37.546875 C 289.070312 37.136719 288.746094 36.820312 288.316406 36.617188 C 287.90625 36.394531 287.460938 36.320312 287.003906 36.414062 C 286.4375 36.519531 285.96875 36.78125 285.679688 37.222656 L 285.671875 37.230469 L 285.667969 37.242188 C 285.394531 37.699219 285.410156 38.195312 285.648438 38.667969 C 286.050781 39.542969 286.679688 40.308594 287.519531 40.964844 C 288.363281 41.617188 289.34375 42.125 290.460938 42.484375 C 291.578125 42.84375 292.753906 43.019531 293.980469 43.019531 C 295.015625 43.019531 296.015625 42.894531 296.980469 42.644531 C 297.964844 42.394531 298.847656 42.011719 299.617188 41.496094 C 300.410156 40.960938 301.039062 40.304688 301.496094 39.523438 C 301.988281 38.726562 302.222656 37.796875 302.222656 36.757812 C 302.222656 34.949219 301.558594 33.457031 300.210938 32.332031 C 298.898438 31.203125 297.085938 30.554688 294.832031 30.34375 C 293.425781 30.207031 292.394531 29.976562 291.703125 29.671875 C 291.011719 29.355469 290.585938 29.011719 290.363281 28.664062 C 290.128906 28.253906 290.015625 27.839844 290.015625 27.414062 C 290.015625 26.980469 290.113281 26.628906 290.292969 26.34375 C 290.46875 26.058594 290.738281 25.8125 291.128906 25.609375 L 291.132812 25.605469 C 291.949219 25.164062 292.988281 24.9375 294.277344 24.953125 L 294.285156 24.953125 C 295.007812 24.953125 295.609375 25.050781 296.105469 25.226562 L 296.113281 25.230469 L 296.117188 25.230469 C 296.632812 25.402344 297.070312 25.636719 297.4375 25.933594 C 297.808594 26.238281 298.128906 26.609375 298.398438 27.058594 L 298.402344 27.066406 C 298.671875 27.5 299.082031 27.796875 299.597656 27.949219 C 300.144531 28.109375 300.675781 28.054688 301.15625 27.769531 L 301.164062 27.769531 C 301.59375 27.507812 301.859375 27.132812 301.914062 26.65625 C 301.988281 26.175781 301.839844 25.707031 301.539062 25.269531 C 301.058594 24.53125 300.484375 23.890625 299.820312 23.34375 C 299.148438 22.792969 298.359375 22.363281 297.460938 22.050781 C 296.566406 21.738281 295.53125 21.585938 294.367188 21.585938 Z M 294.367188 21.585938 " fill-opacity="1" fill-rule="nonzero"/><g clip-path="url(#46f8e71d09)"><path fill="#ff7f5c" d="M 307.519531 21.816406 C 306.988281 21.816406 306.519531 21.992188 306.144531 22.335938 C 305.757812 22.675781 305.574219 23.125 305.574219 23.628906 L 305.574219 40.953125 C 305.574219 41.453125 305.765625 41.890625 306.140625 42.242188 C 306.515625 42.589844 306.984375 42.765625 307.519531 42.765625 L 319.949219 42.765625 C 320.46875 42.765625 320.945312 42.625 321.316406 42.304688 L 321.328125 42.292969 C 321.695312 41.953125 321.863281 41.519531 321.863281 41.03125 C 321.863281 40.554688 321.6875 40.132812 321.316406 39.808594 C 320.945312 39.488281 320.46875 39.347656 319.949219 39.347656 L 309.464844 39.347656 L 309.464844 33.910156 L 316.839844 33.910156 C 317.363281 33.910156 317.839844 33.769531 318.207031 33.449219 L 318.214844 33.441406 L 318.222656 33.4375 C 318.582031 33.101562 318.757812 32.679688 318.757812 32.203125 C 318.757812 31.726562 318.585938 31.308594 318.214844 30.984375 C 317.847656 30.648438 317.371094 30.492188 316.839844 30.492188 L 309.464844 30.492188 L 309.464844 25.234375 L 319.949219 25.234375 C 320.46875 25.234375 320.945312 25.09375 321.316406 24.773438 C 321.6875 24.453125 321.863281 24.027344 321.863281 23.550781 C 321.863281 23.066406 321.695312 22.636719 321.324219 22.308594 C 320.953125 21.972656 320.480469 21.816406 319.949219 21.816406 Z M 307.519531 21.816406 " fill-opacity="1" fill-rule="nonzero"/></g><path fill="#ff7f5c" d="M 266.402344 21.816406 C 265.871094 21.816406 265.402344 21.992188 265.027344 22.335938 C 264.636719 22.675781 264.457031 23.125 264.457031 23.628906 L 264.457031 35.578125 C 264.457031 37.046875 264.855469 38.367188 265.667969 39.527344 L 265.671875 39.53125 C 266.496094 40.683594 267.632812 41.582031 269.0625 42.230469 L 269.066406 42.234375 C 270.503906 42.863281 272.140625 43.175781 273.960938 43.175781 C 275.730469 43.175781 277.324219 42.863281 278.722656 42.230469 L 278.730469 42.226562 C 280.125 41.578125 281.222656 40.675781 282.011719 39.523438 C 282.820312 38.367188 283.21875 37.046875 283.21875 35.578125 L 283.21875 23.628906 C 283.21875 23.132812 283.054688 22.691406 282.691406 22.347656 C 282.324219 21.988281 281.84375 21.816406 281.300781 21.816406 C 280.769531 21.816406 280.300781 21.992188 279.925781 22.335938 C 279.539062 22.675781 279.355469 23.125 279.355469 23.628906 L 279.355469 35.578125 C 279.355469 36.414062 279.125 37.136719 278.671875 37.769531 L 278.671875 37.773438 C 278.234375 38.390625 277.613281 38.890625 276.789062 39.269531 C 275.992188 39.625 275.050781 39.808594 273.960938 39.808594 C 272.835938 39.808594 271.847656 39.625 270.992188 39.265625 C 270.148438 38.886719 269.5 38.386719 269.027344 37.765625 C 268.578125 37.132812 268.347656 36.410156 268.347656 35.578125 L 268.347656 23.628906 C 268.347656 23.125 268.167969 22.679688 267.785156 22.339844 C 267.417969 21.984375 266.941406 21.816406 266.402344 21.816406 Z M 266.402344 21.816406 " fill-opacity="1" fill-rule="nonzero"/><path fill="#ff7f5c" d="M 248.519531 21.816406 C 247.988281 21.816406 247.515625 21.992188 247.144531 22.335938 C 246.753906 22.675781 246.574219 23.125 246.574219 23.628906 L 246.574219 40.953125 C 246.574219 41.453125 246.761719 41.890625 247.136719 42.242188 C 247.511719 42.589844 247.984375 42.765625 248.519531 42.765625 C 249.054688 42.765625 249.527344 42.589844 249.902344 42.242188 C 250.277344 41.890625 250.464844 41.453125 250.464844 40.953125 L 250.464844 33.910156 L 257.839844 33.910156 C 258.363281 33.910156 258.835938 33.769531 259.207031 33.449219 L 259.21875 33.4375 C 259.582031 33.101562 259.757812 32.679688 259.757812 32.203125 C 259.757812 31.726562 259.582031 31.308594 259.214844 30.984375 C 258.847656 30.648438 258.371094 30.492188 257.839844 30.492188 L 250.464844 30.492188 L 250.464844 25.234375 L 260.945312 25.234375 C 261.46875 25.234375 261.941406 25.09375 262.3125 24.773438 C 262.6875 24.453125 262.863281 24.027344 262.863281 23.550781 C 262.863281 23.066406 262.691406 22.636719 262.320312 22.308594 C 261.953125 21.972656 261.476562 21.816406 260.945312 21.816406 Z M 248.519531 21.816406 " fill-opacity="1" fill-rule="nonzero"/></svg>